<svg xmlns="http://www.w3.org/2000/svg" version="1.1" xmlns:xlink="http://www.w3.org/1999/xlink" width="512" height="512"><svg xmlns="http://www.w3.org/2000/svg" xmlns:xlink="http://www.w3.org/1999/xlink" width="512" zoomAndPan="magnify" viewBox="0 0 384 383.999986" height="512" preserveAspectRatio="xMidYMid meet" version="1.2"><defs><clipPath id="SvgjsClipPath1058"><path d="M 171 204 L 283 204 L 283 316 L 171 316 Z M 171 204 "></path></clipPath><clipPath id="SvgjsClipPath1057"><path d="M 147.761719 223.28125 L 224.777344 146.503906 L 339.679688 261.765625 L 262.664062 338.542969 Z M 147.761719 223.28125 "></path></clipPath><clipPath id="SvgjsClipPath1056"><path d="M 147.761719 223.28125 L 224.777344 146.503906 L 339.679688 261.765625 L 262.664062 338.542969 Z M 147.761719 223.28125 "></path></clipPath><clipPath id="SvgjsClipPath1055"><path d="M 231 146 L 344 146 L 344 258 L 231 258 Z M 231 146 "></path></clipPath><clipPath id="SvgjsClipPath1054"><path d="M 208.125 165.835938 L 285.140625 89.058594 L 400.042969 204.320312 L 323.027344 281.097656 Z M 208.125 165.835938 "></path></clipPath><clipPath id="SvgjsClipPath1053"><path d="M 208.125 165.835938 L 285.140625 89.058594 L 400.042969 204.320312 L 323.027344 281.097656 Z M 208.125 165.835938 "></path></clipPath></defs><g id="SvgjsG1052"><rect x="0" width="384" y="0" height="383.999986" style="fill:#ffffff;fill-opacity:1;stroke:none;"></rect><rect x="0" width="384" y="0" height="383.999986" style="fill:#ffffff;fill-opacity:1;stroke:none;"></rect><g style="fill:#373643;fill-opacity:1;"><g transform="translate(45.197279, 363.286708)"><path style="stroke:none" d="M 146.5 -50.609375 C 154.664062 -55.222656 162.03125 -56.816406 168.59375 -55.390625 C 175.164062 -53.972656 180.492188 -50.867188 184.578125 -46.078125 C 188.660156 -41.285156 190.703125 -35.691406 190.703125 -29.296875 C 190.703125 -24.679688 189.28125 -20.0625 186.4375 -15.4375 C 183.601562 -10.820312 179.164062 -6.921875 173.125 -3.734375 C 165.3125 0.523438 158.207031 3.097656 151.8125 3.984375 C 145.425781 4.878906 137.972656 5.328125 129.453125 5.328125 C 106.367188 5.328125 88.609375 0.535156 76.171875 -9.046875 C 63.742188 -18.640625 55.222656 -31.070312 50.609375 -46.34375 C 45.992188 -61.613281 43.6875 -77.773438 43.6875 -94.828125 L 43.6875 -220.546875 L 23.4375 -220.546875 C 13.488281 -220.546875 6.117188 -223.207031 1.328125 -228.53125 C -3.460938 -233.851562 -5.859375 -239.535156 -5.859375 -245.578125 C -5.859375 -251.972656 -3.375 -257.832031 1.59375 -263.15625 C 6.570312 -268.476562 13.851562 -271.140625 23.4375 -271.140625 L 43.6875 -271.140625 L 43.6875 -316.953125 C 43.6875 -326.191406 46.703125 -333.117188 52.734375 -337.734375 C 58.773438 -342.347656 65.703125 -344.65625 73.515625 -344.65625 C 80.972656 -344.65625 87.894531 -342.347656 94.28125 -337.734375 C 100.675781 -333.117188 103.875 -326.191406 103.875 -316.953125 L 103.875 -271.140625 L 145.421875 -271.140625 C 154.660156 -271.140625 161.765625 -268.476562 166.734375 -263.15625 C 171.703125 -257.832031 174.1875 -251.972656 174.1875 -245.578125 C 174.1875 -239.179688 171.703125 -233.410156 166.734375 -228.265625 C 161.765625 -223.117188 154.660156 -220.546875 145.421875 -220.546875 L 103.875 -220.546875 L 103.875 -94.828125 C 103.875 -87.015625 104.40625 -79.46875 105.46875 -72.1875 C 106.539062 -64.90625 108.941406 -58.863281 112.671875 -54.0625 C 116.398438 -49.269531 121.992188 -46.875 129.453125 -46.875 C 132.285156 -46.875 135.390625 -47.316406 138.765625 -48.203125 C 142.140625 -49.097656 144.71875 -49.898438 146.5 -50.609375 Z M 146.5 -50.609375 "></path></g></g><g clip-rule="nonzero" clip-path="url(#ad47857d48)"><g clip-rule="nonzero" clip-path="url(#1fc0359af7)"><g clip-rule="nonzero" clip-path="url(#62b3409681)"><path style=" stroke:none;fill-rule:nonzero;fill:#c02440;fill-opacity:1;" d="M 282.988281 204.898438 L 185.761719 204.253906 C 166.984375 204.128906 165.199219 240.769531 187.433594 240.535156 L 247.894531 239.886719 L 245.578125 300.835938 C 244.875 319.394531 281.039062 319.984375 281.359375 301.136719 Z M 282.988281 204.898438 "></path></g></g></g><g clip-rule="nonzero" clip-path="url(#e9290a0f05)"><g clip-rule="nonzero" clip-path="url(#0fc6c123ae)"><g clip-rule="nonzero" clip-path="url(#4b7c089ee0)"><path style=" stroke:none;fill-rule:nonzero;fill:#0e5e55;fill-opacity:1;" d="M 343.351562 147.453125 L 246.125 146.808594 C 227.34375 146.683594 225.558594 183.324219 247.796875 183.089844 L 308.257812 182.441406 L 305.941406 243.390625 C 305.234375 261.949219 341.402344 262.539062 341.722656 243.691406 Z M 343.351562 147.453125 "></path></g></g></g></g></svg><style>@media (prefers-color-scheme: light) { :root { filter: none; } }
@media (prefers-color-scheme: dark) { :root { filter: none; } }
</style></svg>