<svg xmlns="http://www.w3.org/2000/svg" version="1.1" xmlns:xlink="http://www.w3.org/1999/xlink" width="512" height="512"><svg xmlns="http://www.w3.org/2000/svg" xmlns:xlink="http://www.w3.org/1999/xlink" width="512" zoomAndPan="magnify" viewBox="0 0 384 383.999986" height="512" preserveAspectRatio="xMidYMid meet" version="1.2"><defs><clipPath id="SvgjsClipPath1045"><rect x="0" width="183" y="0" height="384"></rect></clipPath><clipPath id="SvgjsClipPath1044"><path d="M 159 197 L 284 197 L 284 320 L 159 320 Z M 159 197 "></path></clipPath><clipPath id="SvgjsClipPath1043"><path d="M 133.59375 218.328125 L 218.578125 133.605469 L 345.660156 261.082031 L 260.675781 345.804688 Z M 133.59375 218.328125 "></path></clipPath><clipPath id="SvgjsClipPath1042"><path d="M 133.59375 218.328125 L 218.578125 133.605469 L 345.660156 261.082031 L 260.675781 345.804688 Z M 133.59375 218.328125 "></path></clipPath><clipPath id="SvgjsClipPath1041"><path d="M 227 131 L 351 131 L 351 254 L 227 254 Z M 227 131 "></path></clipPath><clipPath id="SvgjsClipPath1040"><path d="M 201.34375 152.105469 L 286.328125 67.382812 L 413.410156 194.859375 L 328.425781 279.582031 Z M 201.34375 152.105469 "></path></clipPath><clipPath id="SvgjsClipPath1039"><path d="M 201.34375 152.105469 L 286.328125 67.382812 L 413.410156 194.859375 L 328.425781 279.582031 Z M 201.34375 152.105469 "></path></clipPath></defs><g id="SvgjsG1038"><g transform="matrix(1,0,0,1,19,0)"><g clip-path="url(#46b50473e4)"><g style="fill:#373643;fill-opacity:1;"><g transform="translate(1.001708, 360.425929)"><path style="stroke:none" d="M 179.921875 -69.9375 L 179.921875 0 L 137.953125 0 C 108.046875 0 84.734375 -7.3125 68.015625 -21.9375 C 51.296875 -36.570312 42.9375 -60.453125 42.9375 -93.578125 L 42.9375 -200.671875 L 10.125 -200.671875 L 10.125 -269.171875 L 42.9375 -269.171875 L 42.9375 -334.765625 L 125.421875 -334.765625 L 125.421875 -269.171875 L 179.4375 -269.171875 L 179.4375 -200.671875 L 125.421875 -200.671875 L 125.421875 -92.609375 C 125.421875 -84.578125 127.347656 -78.789062 131.203125 -75.25 C 135.066406 -71.707031 141.5 -69.9375 150.5 -69.9375 Z M 179.921875 -69.9375 "></path></g></g></g></g><g clip-rule="nonzero" clip-path="url(#3fe8e60d14)"><g clip-rule="nonzero" clip-path="url(#91301898a5)"><g clip-rule="nonzero" clip-path="url(#0677ef22dc)"><path style=" stroke:none;fill-rule:nonzero;fill:#c02440;fill-opacity:1;" d="M 283.0625 198.011719 L 175.601562 197.300781 C 154.84375 197.160156 152.871094 237.660156 177.449219 237.398438 L 244.273438 236.683594 L 241.714844 304.046875 C 240.933594 324.5625 280.910156 325.214844 281.261719 304.382812 Z M 283.0625 198.011719 "></path></g></g></g><g clip-rule="nonzero" clip-path="url(#b52643115b)"><g clip-rule="nonzero" clip-path="url(#44f7e75d47)"><g clip-rule="nonzero" clip-path="url(#286748949a)"><path style=" stroke:none;fill-rule:nonzero;fill:#0e5e55;fill-opacity:1;" d="M 350.816406 131.789062 L 243.351562 131.078125 C 222.59375 130.941406 220.621094 171.4375 245.199219 171.175781 L 312.023438 170.460938 L 309.464844 237.824219 C 308.6875 258.339844 348.660156 258.992188 349.011719 238.160156 Z M 350.816406 131.789062 "></path></g></g></g></g></svg><style>@media (prefers-color-scheme: light) { :root { filter: none; } }
@media (prefers-color-scheme: dark) { :root { filter: none; } }
</style></svg>