<svg xmlns="http://www.w3.org/2000/svg" xmlns:xlink="http://www.w3.org/1999/xlink" width="1080" zoomAndPan="magnify" viewBox="0 0 810 299.999988" height="400" preserveAspectRatio="xMidYMid meet" version="1.2"><defs><clipPath id="ede9c77892"><path d="M 662 64 L 721 64 L 721 124 L 662 124 Z M 662 64 "/></clipPath><clipPath id="49af2efe08"><path d="M 649.890625 73.753906 L 691.75 35.066406 L 749.273438 97.300781 L 707.417969 135.992188 Z M 649.890625 73.753906 "/></clipPath><clipPath id="f619dae516"><path d="M 649.890625 73.753906 L 691.75 35.066406 L 749.273438 97.300781 L 707.417969 135.992188 Z M 649.890625 73.753906 "/></clipPath><clipPath id="6184035a57"><path d="M 692 29 L 752 29 L 752 89 L 692 89 Z M 692 29 "/></clipPath><clipPath id="ea5bf7b5af"><path d="M 680.636719 38.554688 L 722.496094 -0.132812 L 780.019531 62.105469 L 738.160156 100.792969 Z M 680.636719 38.554688 "/></clipPath><clipPath id="e6ec258561"><path d="M 680.636719 38.554688 L 722.496094 -0.132812 L 780.019531 62.105469 L 738.160156 100.792969 Z M 680.636719 38.554688 "/></clipPath></defs><g id="7a34caab6b"><g clip-rule="nonzero" clip-path="url(#ede9c77892)"><g clip-rule="nonzero" clip-path="url(#49af2efe08)"><g clip-rule="nonzero" clip-path="url(#f619dae516)"><path style=" stroke:none;fill-rule:nonzero;fill:#c02440;fill-opacity:1;" d="M 720.691406 66.84375 L 670.0625 64.59375 C 660.285156 64.160156 658.632812 83.207031 670.21875 83.523438 L 701.722656 84.375 L 699.316406 116.078125 C 698.585938 125.730469 717.410156 126.75 717.949219 116.9375 Z M 720.691406 66.84375 "/></g></g></g><g clip-rule="nonzero" clip-path="url(#6184035a57)"><g clip-rule="nonzero" clip-path="url(#ea5bf7b5af)"><g clip-rule="nonzero" clip-path="url(#e6ec258561)"><path style=" stroke:none;fill-rule:nonzero;fill:#0e5e55;fill-opacity:1;" d="M 751.4375 31.644531 L 700.808594 29.394531 C 691.027344 28.960938 689.378906 48.011719 700.964844 48.324219 L 732.46875 49.179688 L 730.0625 80.878906 C 729.328125 90.53125 748.15625 91.550781 748.691406 81.738281 Z M 751.4375 31.644531 "/></g></g></g><g style="fill:#373643;fill-opacity:1;"><g transform="translate(59.429747, 178.707509)"><path style="stroke:none" d="M 41.53125 -14.34375 C 43.84375 -15.65625 45.925781 -16.109375 47.78125 -15.703125 C 49.644531 -15.296875 51.15625 -14.410156 52.3125 -13.046875 C 53.476562 -11.691406 54.0625 -10.113281 54.0625 -8.3125 C 54.0625 -7 53.65625 -5.6875 52.84375 -4.375 C 52.039062 -3.070312 50.785156 -1.96875 49.078125 -1.0625 C 46.859375 0.144531 44.84375 0.875 43.03125 1.125 C 41.21875 1.382812 39.101562 1.515625 36.6875 1.515625 C 30.144531 1.515625 25.113281 0.15625 21.59375 -2.5625 C 18.070312 -5.28125 15.65625 -8.800781 14.34375 -13.125 C 13.03125 -17.457031 12.375 -22.039062 12.375 -26.875 L 12.375 -62.515625 L 6.640625 -62.515625 C 3.828125 -62.515625 1.738281 -63.269531 0.375 -64.78125 C -0.976562 -66.289062 -1.65625 -67.898438 -1.65625 -69.609375 C -1.65625 -71.421875 -0.953125 -73.082031 0.453125 -74.59375 C 1.859375 -76.101562 3.921875 -76.859375 6.640625 -76.859375 L 12.375 -76.859375 L 12.375 -89.84375 C 12.375 -92.457031 13.226562 -94.421875 14.9375 -95.734375 C 16.65625 -97.046875 18.625 -97.703125 20.84375 -97.703125 C 22.957031 -97.703125 24.914062 -97.046875 26.71875 -95.734375 C 28.53125 -94.421875 29.4375 -92.457031 29.4375 -89.84375 L 29.4375 -76.859375 L 41.21875 -76.859375 C 43.84375 -76.859375 45.859375 -76.101562 47.265625 -74.59375 C 48.671875 -73.082031 49.375 -71.421875 49.375 -69.609375 C 49.375 -67.796875 48.671875 -66.160156 47.265625 -64.703125 C 45.859375 -63.242188 43.84375 -62.515625 41.21875 -62.515625 L 29.4375 -62.515625 L 29.4375 -26.875 C 29.4375 -24.664062 29.585938 -22.523438 29.890625 -20.453125 C 30.191406 -18.390625 30.867188 -16.675781 31.921875 -15.3125 C 32.984375 -13.957031 34.570312 -13.28125 36.6875 -13.28125 C 37.5 -13.28125 38.378906 -13.40625 39.328125 -13.65625 C 40.285156 -13.914062 41.019531 -14.144531 41.53125 -14.34375 Z M 41.53125 -14.34375 "/></g></g><g style="fill:#373643;fill-opacity:1;"><g transform="translate(111.818727, 178.707509)"><path style="stroke:none" d="M 43.1875 -13.4375 C 46.101562 -13.4375 48.96875 -13.835938 51.78125 -14.640625 C 54.601562 -15.453125 57.222656 -16.8125 59.640625 -18.71875 C 61.960938 -20.832031 64.226562 -21.8125 66.4375 -21.65625 C 68.65625 -21.507812 70.492188 -20.707031 71.953125 -19.25 C 73.410156 -17.789062 74.140625 -15.976562 74.140625 -13.8125 C 74.140625 -11.644531 73.082031 -9.554688 70.96875 -7.546875 C 67.445312 -4.128906 63.269531 -1.738281 58.4375 -0.375 C 53.601562 0.976562 48.671875 1.609375 43.640625 1.515625 C 35.785156 1.515625 28.863281 -0.09375 22.875 -3.3125 C 16.882812 -6.539062 12.203125 -11.023438 8.828125 -16.765625 C 5.460938 -22.503906 3.78125 -29.144531 3.78125 -36.6875 C 3.78125 -44.945312 5.390625 -52.195312 8.609375 -58.4375 C 11.828125 -64.675781 16.378906 -69.554688 22.265625 -73.078125 C 28.160156 -76.609375 35.132812 -78.375 43.1875 -78.375 C 51.238281 -78.375 58.082031 -76.734375 63.71875 -73.453125 C 69.351562 -70.179688 73.65625 -65.601562 76.625 -59.71875 C 79.601562 -53.832031 81.09375 -46.960938 81.09375 -39.109375 C 81.09375 -36.585938 80.585938 -34.445312 79.578125 -32.6875 C 78.566406 -30.925781 75.898438 -30.046875 71.578125 -30.046875 L 21.296875 -30.046875 C 22.703125 -25.117188 25.367188 -21.117188 29.296875 -18.046875 C 33.222656 -14.972656 37.851562 -13.4375 43.1875 -13.4375 Z M 43.34375 -63.421875 C 37.5 -63.421875 32.613281 -61.582031 28.6875 -57.90625 C 24.757812 -54.226562 22.242188 -49.421875 21.140625 -43.484375 L 65.078125 -43.484375 C 64.578125 -49.421875 62.613281 -54.226562 59.1875 -57.90625 C 55.769531 -61.582031 50.488281 -63.421875 43.34375 -63.421875 Z M 43.34375 -63.421875 "/></g></g><g style="fill:#373643;fill-opacity:1;"><g transform="translate(199.537174, 178.707509)"><path style="stroke:none" d="M 110.53125 -78.375 C 117.582031 -78.375 123.570312 -76.835938 128.5 -73.765625 C 133.4375 -70.691406 137.210938 -66.410156 139.828125 -60.921875 C 142.441406 -55.441406 143.75 -49.078125 143.75 -41.828125 L 143.75 -7.859375 C 143.75 -5.535156 143.019531 -3.644531 141.5625 -2.1875 C 140.101562 -0.726562 137.960938 0 135.140625 0 C 132.628906 0 130.566406 -0.726562 128.953125 -2.1875 C 127.335938 -3.644531 126.53125 -5.535156 126.53125 -7.859375 L 126.53125 -42.125 C 126.53125 -48.363281 125.046875 -53.445312 122.078125 -57.375 C 119.109375 -61.300781 114.453125 -63.265625 108.109375 -63.265625 C 104.890625 -63.265625 101.492188 -62.257812 97.921875 -60.25 C 94.347656 -58.238281 91.328125 -55.316406 88.859375 -51.484375 C 86.390625 -47.660156 85.15625 -42.984375 85.15625 -37.453125 L 85.15625 -7.859375 C 85.15625 -5.535156 84.425781 -3.644531 82.96875 -2.1875 C 81.507812 -0.726562 79.421875 0 76.703125 0 C 74.191406 0 72.101562 -0.726562 70.4375 -2.1875 C 68.78125 -3.644531 67.953125 -5.535156 67.953125 -7.859375 L 67.953125 -42.125 C 67.953125 -48.363281 66.46875 -53.445312 63.5 -57.375 C 60.53125 -61.300781 55.875 -63.265625 49.53125 -63.265625 C 47.613281 -63.265625 45.394531 -62.734375 42.875 -61.671875 C 40.363281 -60.617188 37.898438 -59.035156 35.484375 -56.921875 C 33.066406 -54.804688 31.078125 -52.140625 29.515625 -48.921875 C 27.960938 -45.703125 27.1875 -41.878906 27.1875 -37.453125 L 27.1875 -7.546875 C 27.1875 -5.035156 26.28125 -3.148438 24.46875 -1.890625 C 22.65625 -0.628906 20.691406 0 18.578125 0 C 16.359375 0 14.390625 -0.628906 12.671875 -1.890625 C 10.960938 -3.148438 10.109375 -5.035156 10.109375 -7.546875 L 10.109375 -69.15625 C 10.109375 -71.269531 10.9375 -73.082031 12.59375 -74.59375 C 14.257812 -76.101562 16.253906 -76.859375 18.578125 -76.859375 C 21.191406 -76.859375 23.28125 -76.101562 24.84375 -74.59375 C 26.40625 -73.082031 27.1875 -71.269531 27.1875 -69.15625 L 27.1875 -68.703125 C 31.3125 -72.628906 35.535156 -75.222656 39.859375 -76.484375 C 44.191406 -77.742188 48.269531 -78.375 52.09375 -78.375 C 58.4375 -78.375 63.921875 -77.085938 68.546875 -74.515625 C 73.179688 -71.953125 76.859375 -68.457031 79.578125 -64.03125 C 82.703125 -67.851562 86.070312 -70.796875 89.6875 -72.859375 C 93.3125 -74.921875 96.9375 -76.351562 100.5625 -77.15625 C 104.1875 -77.96875 107.507812 -78.375 110.53125 -78.375 Z M 110.53125 -78.375 "/></g></g><g style="fill:#373643;fill-opacity:1;"><g transform="translate(355.045898, 178.707509)"><path style="stroke:none" d="M 46.203125 -78.375 C 53.648438 -78.375 60.164062 -76.734375 65.75 -73.453125 C 71.34375 -70.179688 75.675781 -65.601562 78.75 -59.71875 C 81.820312 -53.832031 83.359375 -47.015625 83.359375 -39.265625 C 83.359375 -31.210938 81.820312 -24.113281 78.75 -17.96875 C 75.675781 -11.832031 71.421875 -7.050781 65.984375 -3.625 C 60.546875 -0.195312 54.15625 1.515625 46.8125 1.515625 C 43.382812 1.515625 39.65625 0.910156 35.625 -0.296875 C 31.601562 -1.503906 27.929688 -3.21875 24.609375 -5.4375 L 24.609375 17.671875 C 24.609375 20.179688 23.726562 22.09375 21.96875 23.40625 C 20.207031 24.71875 18.269531 25.375 16.15625 25.375 C 13.9375 25.375 11.945312 24.71875 10.1875 23.40625 C 8.425781 22.09375 7.546875 20.179688 7.546875 17.671875 L 7.546875 -69.15625 C 7.546875 -71.570312 8.328125 -73.457031 9.890625 -74.8125 C 11.453125 -76.175781 13.59375 -76.859375 16.3125 -76.859375 C 20.84375 -76.859375 23.507812 -75.097656 24.3125 -71.578125 C 27.832031 -74.085938 31.503906 -75.847656 35.328125 -76.859375 C 39.160156 -77.867188 42.785156 -78.375 46.203125 -78.375 Z M 46.359375 -13.734375 C 52.296875 -13.734375 57.078125 -16.070312 60.703125 -20.75 C 64.328125 -25.4375 66.140625 -31.554688 66.140625 -39.109375 C 66.140625 -46.253906 64.203125 -52.039062 60.328125 -56.46875 C 56.453125 -60.90625 51.34375 -63.125 45 -63.125 C 40.96875 -63.125 37.039062 -62.085938 33.21875 -60.015625 C 29.394531 -57.953125 26.523438 -55.007812 24.609375 -51.1875 L 24.609375 -26.125 C 26.222656 -22.195312 29.09375 -19.148438 33.21875 -16.984375 C 37.34375 -14.816406 41.722656 -13.734375 46.359375 -13.734375 Z M 46.359375 -13.734375 "/></g></g><g style="fill:#373643;fill-opacity:1;"><g transform="translate(442.915303, 178.707509)"><path style="stroke:none" d="M 22.5 -7.546875 C 22.5 -5.535156 21.664062 -3.773438 20 -2.265625 C 18.34375 -0.753906 16.304688 0 13.890625 0 C 11.367188 0 9.300781 -0.753906 7.6875 -2.265625 C 6.082031 -3.773438 5.28125 -5.535156 5.28125 -7.546875 L 5.28125 -90.140625 C 5.28125 -92.160156 6.082031 -93.925781 7.6875 -95.4375 C 9.300781 -96.945312 11.367188 -97.703125 13.890625 -97.703125 C 16.304688 -97.703125 18.34375 -96.945312 20 -95.4375 C 21.664062 -93.925781 22.5 -92.160156 22.5 -90.140625 Z M 22.5 -7.546875 "/></g></g><g style="fill:#373643;fill-opacity:1;"><g transform="translate(467.674815, 178.707509)"><path style="stroke:none" d="M 70.21875 -76.859375 C 72.832031 -76.859375 74.921875 -76.128906 76.484375 -74.671875 C 78.046875 -73.210938 78.828125 -71.320312 78.828125 -69 L 78.828125 -7.859375 C 78.828125 -5.535156 78.046875 -3.644531 76.484375 -2.1875 C 74.921875 -0.726562 72.832031 0 70.21875 0 C 67.695312 0 65.734375 -0.578125 64.328125 -1.734375 C 62.921875 -2.890625 62.066406 -4.425781 61.765625 -6.34375 C 58.335938 -3.625 54.507812 -1.632812 50.28125 -0.375 C 46.050781 0.882812 42.023438 1.515625 38.203125 1.515625 C 30.953125 1.515625 24.679688 -0.144531 19.390625 -3.46875 C 14.109375 -6.789062 10.054688 -11.472656 7.234375 -17.515625 C 4.421875 -23.554688 3.015625 -30.601562 3.015625 -38.65625 C 3.015625 -46.507812 4.570312 -53.40625 7.6875 -59.34375 C 10.8125 -65.28125 15.164062 -69.9375 20.75 -73.3125 C 26.34375 -76.6875 32.816406 -78.375 40.171875 -78.375 C 43.390625 -78.375 46.960938 -77.769531 50.890625 -76.5625 C 54.816406 -75.351562 58.441406 -73.4375 61.765625 -70.8125 C 62.160156 -72.625 63.0625 -74.082031 64.46875 -75.1875 C 65.882812 -76.300781 67.800781 -76.859375 70.21875 -76.859375 Z M 40.015625 -13.734375 C 44.441406 -13.734375 48.71875 -14.710938 52.84375 -16.671875 C 56.976562 -18.640625 59.898438 -21.539062 61.609375 -25.375 L 61.609375 -51.484375 C 59.691406 -55.210938 56.820312 -58.082031 53 -60.09375 C 49.175781 -62.113281 45.300781 -63.125 41.375 -63.125 C 35.03125 -63.125 29.921875 -60.804688 26.046875 -56.171875 C 22.171875 -51.535156 20.234375 -45.644531 20.234375 -38.5 C 20.234375 -31.050781 22.046875 -25.0625 25.671875 -20.53125 C 29.296875 -16 34.078125 -13.734375 40.015625 -13.734375 Z M 40.015625 -13.734375 "/></g></g><g style="fill:#373643;fill-opacity:1;"><g transform="translate(554.940311, 178.707509)"><path style="stroke:none" d="M 41.53125 -14.34375 C 43.84375 -15.65625 45.925781 -16.109375 47.78125 -15.703125 C 49.644531 -15.296875 51.15625 -14.410156 52.3125 -13.046875 C 53.476562 -11.691406 54.0625 -10.113281 54.0625 -8.3125 C 54.0625 -7 53.65625 -5.6875 52.84375 -4.375 C 52.039062 -3.070312 50.785156 -1.96875 49.078125 -1.0625 C 46.859375 0.144531 44.84375 0.875 43.03125 1.125 C 41.21875 1.382812 39.101562 1.515625 36.6875 1.515625 C 30.144531 1.515625 25.113281 0.15625 21.59375 -2.5625 C 18.070312 -5.28125 15.65625 -8.800781 14.34375 -13.125 C 13.03125 -17.457031 12.375 -22.039062 12.375 -26.875 L 12.375 -62.515625 L 6.640625 -62.515625 C 3.828125 -62.515625 1.738281 -63.269531 0.375 -64.78125 C -0.976562 -66.289062 -1.65625 -67.898438 -1.65625 -69.609375 C -1.65625 -71.421875 -0.953125 -73.082031 0.453125 -74.59375 C 1.859375 -76.101562 3.921875 -76.859375 6.640625 -76.859375 L 12.375 -76.859375 L 12.375 -89.84375 C 12.375 -92.457031 13.226562 -94.421875 14.9375 -95.734375 C 16.65625 -97.046875 18.625 -97.703125 20.84375 -97.703125 C 22.957031 -97.703125 24.914062 -97.046875 26.71875 -95.734375 C 28.53125 -94.421875 29.4375 -92.457031 29.4375 -89.84375 L 29.4375 -76.859375 L 41.21875 -76.859375 C 43.84375 -76.859375 45.859375 -76.101562 47.265625 -74.59375 C 48.671875 -73.082031 49.375 -71.421875 49.375 -69.609375 C 49.375 -67.796875 48.671875 -66.160156 47.265625 -64.703125 C 45.859375 -63.242188 43.84375 -62.515625 41.21875 -62.515625 L 29.4375 -62.515625 L 29.4375 -26.875 C 29.4375 -24.664062 29.585938 -22.523438 29.890625 -20.453125 C 30.191406 -18.390625 30.867188 -16.675781 31.921875 -15.3125 C 32.984375 -13.957031 34.570312 -13.28125 36.6875 -13.28125 C 37.5 -13.28125 38.378906 -13.40625 39.328125 -13.65625 C 40.285156 -13.914062 41.019531 -14.144531 41.53125 -14.34375 Z M 41.53125 -14.34375 "/></g></g><g style="fill:#373643;fill-opacity:1;"><g transform="translate(607.329291, 178.707509)"><path style="stroke:none" d="M 43.1875 -13.4375 C 46.101562 -13.4375 48.96875 -13.835938 51.78125 -14.640625 C 54.601562 -15.453125 57.222656 -16.8125 59.640625 -18.71875 C 61.960938 -20.832031 64.226562 -21.8125 66.4375 -21.65625 C 68.65625 -21.507812 70.492188 -20.707031 71.953125 -19.25 C 73.410156 -17.789062 74.140625 -15.976562 74.140625 -13.8125 C 74.140625 -11.644531 73.082031 -9.554688 70.96875 -7.546875 C 67.445312 -4.128906 63.269531 -1.738281 58.4375 -0.375 C 53.601562 0.976562 48.671875 1.609375 43.640625 1.515625 C 35.785156 1.515625 28.863281 -0.09375 22.875 -3.3125 C 16.882812 -6.539062 12.203125 -11.023438 8.828125 -16.765625 C 5.460938 -22.503906 3.78125 -29.144531 3.78125 -36.6875 C 3.78125 -44.945312 5.390625 -52.195312 8.609375 -58.4375 C 11.828125 -64.675781 16.378906 -69.554688 22.265625 -73.078125 C 28.160156 -76.609375 35.132812 -78.375 43.1875 -78.375 C 51.238281 -78.375 58.082031 -76.734375 63.71875 -73.453125 C 69.351562 -70.179688 73.65625 -65.601562 76.625 -59.71875 C 79.601562 -53.832031 81.09375 -46.960938 81.09375 -39.109375 C 81.09375 -36.585938 80.585938 -34.445312 79.578125 -32.6875 C 78.566406 -30.925781 75.898438 -30.046875 71.578125 -30.046875 L 21.296875 -30.046875 C 22.703125 -25.117188 25.367188 -21.117188 29.296875 -18.046875 C 33.222656 -14.972656 37.851562 -13.4375 43.1875 -13.4375 Z M 43.34375 -63.421875 C 37.5 -63.421875 32.613281 -61.582031 28.6875 -57.90625 C 24.757812 -54.226562 22.242188 -49.421875 21.140625 -43.484375 L 65.078125 -43.484375 C 64.578125 -49.421875 62.613281 -54.226562 59.1875 -57.90625 C 55.769531 -61.582031 50.488281 -63.421875 43.34375 -63.421875 Z M 43.34375 -63.421875 "/></g></g><g style="fill:#3d4653;fill-opacity:1;"><g transform="translate(317.214659, 247.051972)"><path style="stroke:none" d="M 0.90625 -8.328125 C 0.582031 -9.640625 0.882812 -10.691406 1.8125 -11.484375 C 2.75 -12.273438 3.78125 -12.671875 4.90625 -12.671875 C 5.738281 -12.671875 6.484375 -12.425781 7.140625 -11.9375 C 7.796875 -11.445312 8.285156 -10.710938 8.609375 -9.734375 C 8.890625 -8.890625 9.492188 -8.195312 10.421875 -7.65625 C 11.359375 -7.125 12.445312 -6.738281 13.6875 -6.5 C 14.925781 -6.269531 16.175781 -6.15625 17.4375 -6.15625 C 19.945312 -6.15625 21.972656 -6.609375 23.515625 -7.515625 C 25.054688 -8.429688 25.828125 -9.585938 25.828125 -10.984375 C 25.828125 -11.960938 25.414062 -12.6875 24.59375 -13.15625 C 23.78125 -13.625 22.707031 -13.953125 21.375 -14.140625 C 20.050781 -14.328125 18.644531 -14.46875 17.15625 -14.5625 C 15.1875 -14.75 13.257812 -14.984375 11.375 -15.265625 C 9.488281 -15.546875 7.773438 -16.019531 6.234375 -16.6875 C 4.691406 -17.363281 3.453125 -18.367188 2.515625 -19.703125 C 1.585938 -21.035156 1.125 -22.84375 1.125 -25.125 C 1.125 -27.363281 1.773438 -29.320312 3.078125 -31 C 4.390625 -32.6875 6.234375 -33.992188 8.609375 -34.921875 C 10.992188 -35.859375 13.75 -36.328125 16.875 -36.328125 C 18.6875 -36.328125 20.644531 -36.148438 22.75 -35.796875 C 24.851562 -35.453125 26.800781 -34.742188 28.59375 -33.671875 C 30.394531 -32.597656 31.710938 -30.941406 32.546875 -28.703125 C 32.878906 -27.765625 32.859375 -26.929688 32.484375 -26.203125 C 32.109375 -25.484375 31.554688 -24.9375 30.828125 -24.5625 C 30.109375 -24.195312 29.375 -24.015625 28.625 -24.015625 C 27.789062 -24.015625 27.101562 -24.175781 26.5625 -24.5 C 26.03125 -24.820312 25.578125 -25.382812 25.203125 -26.1875 C 24.773438 -27.164062 24.0625 -27.882812 23.0625 -28.34375 C 22.0625 -28.8125 20.988281 -29.101562 19.84375 -29.21875 C 18.695312 -29.34375 17.707031 -29.40625 16.875 -29.40625 C 14.539062 -29.40625 12.660156 -29.003906 11.234375 -28.203125 C 9.804688 -27.410156 9.09375 -26.363281 9.09375 -25.0625 C 9.09375 -23.9375 9.46875 -23.175781 10.21875 -22.78125 C 10.96875 -22.382812 11.984375 -22.148438 13.265625 -22.078125 C 14.546875 -22.015625 15.976562 -21.890625 17.5625 -21.703125 C 19.53125 -21.460938 21.46875 -21.203125 23.375 -20.921875 C 25.289062 -20.648438 27.039062 -20.175781 28.625 -19.5 C 30.21875 -18.820312 31.476562 -17.816406 32.40625 -16.484375 C 33.34375 -15.148438 33.8125 -13.316406 33.8125 -10.984375 C 33.8125 -8.703125 33.125 -6.671875 31.75 -4.890625 C 30.375 -3.117188 28.457031 -1.742188 26 -0.765625 C 23.550781 0.210938 20.695312 0.703125 17.4375 0.703125 C 15.988281 0.703125 14.410156 0.59375 12.703125 0.375 C 11.003906 0.164062 9.347656 -0.25 7.734375 -0.875 C 6.117188 -1.5 4.707031 -2.40625 3.5 -3.59375 C 2.289062 -4.789062 1.425781 -6.367188 0.90625 -8.328125 Z M 0.90625 -8.328125 "/></g></g><g style="fill:#3d4653;fill-opacity:1;"><g transform="translate(352.002613, 247.051972)"><path style="stroke:none" d="M 34.375 -35.625 C 35.582031 -35.625 36.5625 -35.25 37.3125 -34.5 C 38.0625 -33.757812 38.4375 -32.828125 38.4375 -31.703125 L 38.4375 -3.5625 C 38.4375 -2.394531 38.003906 -1.507812 37.140625 -0.90625 C 36.273438 -0.300781 35.375 0 34.4375 0 C 33.414062 0 32.492188 -0.3125 31.671875 -0.9375 C 30.859375 -1.570312 30.453125 -2.472656 30.453125 -3.640625 L 30.453125 -3.921875 C 28.535156 -2.054688 26.550781 -0.816406 24.5 -0.203125 C 22.445312 0.398438 20.535156 0.703125 18.765625 0.703125 C 13.910156 0.703125 10.128906 -0.820312 7.421875 -3.875 C 4.710938 -6.9375 3.359375 -11.082031 3.359375 -16.3125 L 3.359375 -31.703125 C 3.359375 -32.773438 3.707031 -33.695312 4.40625 -34.46875 C 5.101562 -35.238281 6.082031 -35.625 7.34375 -35.625 C 8.5625 -35.625 9.53125 -35.238281 10.25 -34.46875 C 10.976562 -33.695312 11.34375 -32.773438 11.34375 -31.703125 L 11.34375 -16.171875 C 11.34375 -13.140625 12.03125 -10.734375 13.40625 -8.953125 C 14.78125 -7.179688 16.960938 -6.296875 19.953125 -6.296875 C 20.835938 -6.296875 21.875 -6.539062 23.0625 -7.03125 C 24.25 -7.519531 25.398438 -8.253906 26.515625 -9.234375 C 27.640625 -10.210938 28.578125 -11.460938 29.328125 -12.984375 C 30.078125 -14.503906 30.453125 -16.289062 30.453125 -18.34375 L 30.453125 -31.703125 C 30.453125 -32.828125 30.773438 -33.757812 31.421875 -34.5 C 32.078125 -35.25 33.0625 -35.625 34.375 -35.625 Z M 34.375 -35.625 "/></g></g><g style="fill:#3d4653;fill-opacity:1;"><g transform="translate(394.280162, 247.051972)"><path style="stroke:none" d="M 10.5 -40.875 C 10.5 -39.707031 10.066406 -38.832031 9.203125 -38.25 C 8.335938 -37.664062 7.414062 -37.375 6.4375 -37.375 C 5.414062 -37.375 4.484375 -37.664062 3.640625 -38.25 C 2.796875 -38.832031 2.375 -39.707031 2.375 -40.875 L 2.375 -41.796875 C 2.375 -43.003906 2.796875 -43.890625 3.640625 -44.453125 C 4.484375 -45.015625 5.414062 -45.296875 6.4375 -45.296875 C 7.414062 -45.296875 8.335938 -45.015625 9.203125 -44.453125 C 10.066406 -43.890625 10.5 -43.003906 10.5 -41.796875 Z M 2.453125 -32.203125 C 2.453125 -33.316406 2.882812 -34.164062 3.75 -34.75 C 4.613281 -35.332031 5.507812 -35.625 6.4375 -35.625 C 7.414062 -35.625 8.328125 -35.332031 9.171875 -34.75 C 10.015625 -34.164062 10.4375 -33.335938 10.4375 -32.265625 L 10.4375 -3.4375 C 10.4375 -2.269531 10.015625 -1.40625 9.171875 -0.84375 C 8.328125 -0.28125 7.414062 0 6.4375 0 C 5.507812 0 4.613281 -0.28125 3.75 -0.84375 C 2.882812 -1.40625 2.453125 -2.269531 2.453125 -3.4375 Z M 2.453125 -32.203125 "/></g></g><g style="fill:#3d4653;fill-opacity:1;"><g transform="translate(405.759398, 247.051972)"><path style="stroke:none" d="M 19.25 -6.65625 C 20.320312 -7.257812 21.289062 -7.46875 22.15625 -7.28125 C 23.019531 -7.09375 23.71875 -6.679688 24.25 -6.046875 C 24.789062 -5.421875 25.0625 -4.6875 25.0625 -3.84375 C 25.0625 -3.238281 24.875 -2.632812 24.5 -2.03125 C 24.125 -1.425781 23.539062 -0.910156 22.75 -0.484375 C 21.71875 0.0664062 20.78125 0.398438 19.9375 0.515625 C 19.101562 0.640625 18.128906 0.703125 17.015625 0.703125 C 13.972656 0.703125 11.632812 0.0703125 10 -1.1875 C 8.375 -2.445312 7.253906 -4.078125 6.640625 -6.078125 C 6.035156 -8.085938 5.734375 -10.210938 5.734375 -12.453125 L 5.734375 -28.984375 L 3.078125 -28.984375 C 1.773438 -28.984375 0.804688 -29.332031 0.171875 -30.03125 C -0.453125 -30.726562 -0.765625 -31.472656 -0.765625 -32.265625 C -0.765625 -33.109375 -0.441406 -33.878906 0.203125 -34.578125 C 0.859375 -35.273438 1.816406 -35.625 3.078125 -35.625 L 5.734375 -35.625 L 5.734375 -41.65625 C 5.734375 -42.863281 6.128906 -43.769531 6.921875 -44.375 C 7.722656 -44.988281 8.632812 -45.296875 9.65625 -45.296875 C 10.632812 -45.296875 11.546875 -44.988281 12.390625 -44.375 C 13.234375 -43.769531 13.65625 -42.863281 13.65625 -41.65625 L 13.65625 -35.625 L 19.109375 -35.625 C 20.328125 -35.625 21.257812 -35.273438 21.90625 -34.578125 C 22.5625 -33.878906 22.890625 -33.109375 22.890625 -32.265625 C 22.890625 -31.429688 22.5625 -30.675781 21.90625 -30 C 21.257812 -29.320312 20.328125 -28.984375 19.109375 -28.984375 L 13.65625 -28.984375 L 13.65625 -12.453125 C 13.65625 -11.429688 13.722656 -10.441406 13.859375 -9.484375 C 13.992188 -8.523438 14.304688 -7.726562 14.796875 -7.09375 C 15.296875 -6.46875 16.035156 -6.15625 17.015625 -6.15625 C 17.378906 -6.15625 17.785156 -6.210938 18.234375 -6.328125 C 18.679688 -6.453125 19.019531 -6.5625 19.25 -6.65625 Z M 19.25 -6.65625 "/></g></g><g style="fill:#3d4653;fill-opacity:1;"><g transform="translate(430.047925, 247.051972)"><path style="stroke:none" d="M 20.015625 -6.234375 C 21.367188 -6.234375 22.695312 -6.414062 24 -6.78125 C 25.3125 -7.15625 26.53125 -7.789062 27.65625 -8.6875 C 28.726562 -9.664062 29.773438 -10.117188 30.796875 -10.046875 C 31.828125 -9.972656 32.679688 -9.597656 33.359375 -8.921875 C 34.035156 -8.242188 34.375 -7.40625 34.375 -6.40625 C 34.375 -5.40625 33.882812 -4.4375 32.90625 -3.5 C 31.269531 -1.914062 29.332031 -0.804688 27.09375 -0.171875 C 24.851562 0.453125 22.566406 0.742188 20.234375 0.703125 C 16.585938 0.703125 13.375 -0.0390625 10.59375 -1.53125 C 7.820312 -3.03125 5.65625 -5.109375 4.09375 -7.765625 C 2.53125 -10.429688 1.75 -13.515625 1.75 -17.015625 C 1.75 -20.835938 2.492188 -24.195312 3.984375 -27.09375 C 5.484375 -29.988281 7.597656 -32.25 10.328125 -33.875 C 13.054688 -35.507812 16.285156 -36.328125 20.015625 -36.328125 C 23.753906 -36.328125 26.925781 -35.566406 29.53125 -34.046875 C 32.144531 -32.535156 34.140625 -30.414062 35.515625 -27.6875 C 36.898438 -24.957031 37.59375 -21.769531 37.59375 -18.125 C 37.59375 -16.957031 37.359375 -15.96875 36.890625 -15.15625 C 36.421875 -14.34375 35.1875 -13.9375 33.1875 -13.9375 L 9.875 -13.9375 C 10.519531 -11.644531 11.753906 -9.785156 13.578125 -8.359375 C 15.398438 -6.941406 17.546875 -6.234375 20.015625 -6.234375 Z M 20.09375 -29.40625 C 17.382812 -29.40625 15.117188 -28.550781 13.296875 -26.84375 C 11.472656 -25.144531 10.304688 -22.914062 9.796875 -20.15625 L 30.171875 -20.15625 C 29.929688 -22.914062 29.019531 -25.144531 27.4375 -26.84375 C 25.851562 -28.550781 23.40625 -29.40625 20.09375 -29.40625 Z M 20.09375 -29.40625 "/></g></g></g></svg>