<svg xmlns="http://www.w3.org/2000/svg" xmlns:xlink="http://www.w3.org/1999/xlink" width="1080" zoomAndPan="magnify" viewBox="0 0 810 299.999988" height="400" preserveAspectRatio="xMidYMid meet" version="1.2"><defs><clipPath id="f711313d19"><path d="M 692 64 L 751 64 L 751 124 L 692 124 Z M 692 64 "/></clipPath><clipPath id="e25b3da08e"><path d="M 679.890625 73.753906 L 721.75 35.066406 L 779.273438 97.300781 L 737.417969 135.992188 Z M 679.890625 73.753906 "/></clipPath><clipPath id="e0ec9db3f9"><path d="M 679.890625 73.753906 L 721.75 35.066406 L 779.273438 97.300781 L 737.417969 135.992188 Z M 679.890625 73.753906 "/></clipPath><clipPath id="fbe89c2c33"><path d="M 722 29 L 782 29 L 782 89 L 722 89 Z M 722 29 "/></clipPath><clipPath id="55208553d4"><path d="M 710.636719 38.554688 L 752.496094 -0.132812 L 810.019531 62.105469 L 768.160156 100.792969 Z M 710.636719 38.554688 "/></clipPath><clipPath id="6a048302ef"><path d="M 710.636719 38.554688 L 752.496094 -0.132812 L 810.019531 62.105469 L 768.160156 100.792969 Z M 710.636719 38.554688 "/></clipPath></defs><g id="b716243778"><g clip-rule="nonzero" clip-path="url(#f711313d19)"><g clip-rule="nonzero" clip-path="url(#e25b3da08e)"><g clip-rule="nonzero" clip-path="url(#e0ec9db3f9)"><path style=" stroke:none;fill-rule:nonzero;fill:#c02440;fill-opacity:1;" d="M 750.839844 66.828125 L 700.105469 64.574219 C 690.304688 64.140625 688.652344 83.226562 700.261719 83.542969 L 731.832031 84.398438 L 729.417969 116.164062 C 728.683594 125.835938 747.550781 126.859375 748.089844 117.027344 Z M 750.839844 66.828125 "/></g></g></g><g clip-rule="nonzero" clip-path="url(#fbe89c2c33)"><g clip-rule="nonzero" clip-path="url(#55208553d4)"><g clip-rule="nonzero" clip-path="url(#6a048302ef)"><path style=" stroke:none;fill-rule:nonzero;fill:#0e5e55;fill-opacity:1;" d="M 781.582031 31.632812 L 730.851562 29.378906 C 721.050781 28.941406 719.394531 48.03125 731.007812 48.34375 L 762.574219 49.199219 L 760.164062 80.964844 C 759.429688 90.640625 778.296875 91.660156 778.832031 81.828125 Z M 781.582031 31.632812 "/></g></g></g><g style="fill:#373643;fill-opacity:1;"><g transform="translate(45.880704, 177.596369)"><path style="stroke:none" d="M 56.328125 -21.890625 L 56.328125 0 L 43.1875 0 C 33.820312 0 26.519531 -2.289062 21.28125 -6.875 C 16.050781 -11.457031 13.4375 -18.929688 13.4375 -29.296875 L 13.4375 -62.828125 L 3.171875 -62.828125 L 3.171875 -84.265625 L 13.4375 -84.265625 L 13.4375 -104.8125 L 39.265625 -104.8125 L 39.265625 -84.265625 L 56.171875 -84.265625 L 56.171875 -62.828125 L 39.265625 -62.828125 L 39.265625 -29 C 39.265625 -26.476562 39.867188 -24.660156 41.078125 -23.546875 C 42.285156 -22.441406 44.296875 -21.890625 47.109375 -21.890625 Z M 56.328125 -21.890625 "/></g></g><g style="fill:#373643;fill-opacity:1;"><g transform="translate(101.451264, 177.596369)"><path style="stroke:none" d="M 88.796875 -43.5 C 88.796875 -41.082031 88.644531 -38.5625 88.34375 -35.9375 L 29.90625 -35.9375 C 30.300781 -30.707031 31.984375 -26.707031 34.953125 -23.9375 C 37.929688 -21.164062 41.582031 -19.78125 45.90625 -19.78125 C 52.351562 -19.78125 56.832031 -22.5 59.34375 -27.9375 L 86.828125 -27.9375 C 85.421875 -22.394531 82.878906 -17.410156 79.203125 -12.984375 C 75.535156 -8.554688 70.929688 -5.082031 65.390625 -2.5625 C 59.847656 -0.0507812 53.65625 1.203125 46.8125 1.203125 C 38.5625 1.203125 31.210938 -0.554688 24.765625 -4.078125 C 18.316406 -7.597656 13.28125 -12.628906 9.65625 -19.171875 C 6.039062 -25.722656 4.234375 -33.378906 4.234375 -42.140625 C 4.234375 -50.890625 6.019531 -58.535156 9.59375 -65.078125 C 13.164062 -71.628906 18.171875 -76.664062 24.609375 -80.1875 C 31.054688 -83.707031 38.457031 -85.46875 46.8125 -85.46875 C 54.96875 -85.46875 62.21875 -83.753906 68.5625 -80.328125 C 74.90625 -76.910156 79.863281 -72.03125 83.4375 -65.6875 C 87.007812 -59.34375 88.796875 -51.945312 88.796875 -43.5 Z M 62.375 -50.28125 C 62.375 -54.71875 60.863281 -58.242188 57.84375 -60.859375 C 54.820312 -63.472656 51.046875 -64.78125 46.515625 -64.78125 C 42.179688 -64.78125 38.53125 -63.519531 35.5625 -61 C 32.59375 -58.488281 30.753906 -54.914062 30.046875 -50.28125 Z M 62.375 -50.28125 "/></g></g><g style="fill:#373643;fill-opacity:1;"><g transform="translate(188.733468, 177.596369)"><path style="stroke:none" d="M 116.890625 -85.171875 C 127.359375 -85.171875 135.6875 -82 141.875 -75.65625 C 148.070312 -69.3125 151.171875 -60.503906 151.171875 -49.234375 L 151.171875 0 L 125.5 0 L 125.5 -45.75 C 125.5 -51.1875 124.0625 -55.390625 121.1875 -58.359375 C 118.320312 -61.335938 114.367188 -62.828125 109.328125 -62.828125 C 104.296875 -62.828125 100.34375 -61.335938 97.46875 -58.359375 C 94.601562 -55.390625 93.171875 -51.1875 93.171875 -45.75 L 93.171875 0 L 67.5 0 L 67.5 -45.75 C 67.5 -51.1875 66.0625 -55.390625 63.1875 -58.359375 C 60.320312 -61.335938 56.375 -62.828125 51.34375 -62.828125 C 46.3125 -62.828125 42.359375 -61.335938 39.484375 -58.359375 C 36.617188 -55.390625 35.1875 -51.1875 35.1875 -45.75 L 35.1875 0 L 9.359375 0 L 9.359375 -84.265625 L 35.1875 -84.265625 L 35.1875 -73.703125 C 37.800781 -77.222656 41.222656 -80.015625 45.453125 -82.078125 C 49.679688 -84.140625 54.460938 -85.171875 59.796875 -85.171875 C 66.140625 -85.171875 71.800781 -83.8125 76.78125 -81.09375 C 81.769531 -78.375 85.675781 -74.5 88.5 -69.46875 C 91.414062 -74.09375 95.390625 -77.863281 100.421875 -80.78125 C 105.453125 -83.707031 110.941406 -85.171875 116.890625 -85.171875 Z M 116.890625 -85.171875 "/></g></g><g style="fill:#373643;fill-opacity:1;"><g transform="translate(342.912126, 177.596369)"><path style="stroke:none" d="M 35.1875 -72.34375 C 37.707031 -76.257812 41.179688 -79.425781 45.609375 -81.84375 C 50.035156 -84.257812 55.21875 -85.46875 61.15625 -85.46875 C 68.101562 -85.46875 74.394531 -83.707031 80.03125 -80.1875 C 85.675781 -76.664062 90.132812 -71.628906 93.40625 -65.078125 C 96.675781 -58.535156 98.3125 -50.9375 98.3125 -42.28125 C 98.3125 -33.625 96.675781 -26 93.40625 -19.40625 C 90.132812 -12.8125 85.675781 -7.726562 80.03125 -4.15625 C 74.394531 -0.582031 68.101562 1.203125 61.15625 1.203125 C 55.320312 1.203125 50.164062 -0.00390625 45.6875 -2.421875 C 41.207031 -4.835938 37.707031 -7.957031 35.1875 -11.78125 L 35.1875 40.171875 L 9.359375 40.171875 L 9.359375 -84.265625 L 35.1875 -84.265625 Z M 72.03125 -42.28125 C 72.03125 -48.726562 70.242188 -53.785156 66.671875 -57.453125 C 63.097656 -61.128906 58.691406 -62.96875 53.453125 -62.96875 C 48.316406 -62.96875 43.960938 -61.101562 40.390625 -57.375 C 36.816406 -53.65625 35.03125 -48.578125 35.03125 -42.140625 C 35.03125 -35.691406 36.816406 -30.601562 40.390625 -26.875 C 43.960938 -23.15625 48.316406 -21.296875 53.453125 -21.296875 C 58.585938 -21.296875 62.96875 -23.179688 66.59375 -26.953125 C 70.21875 -30.734375 72.03125 -35.84375 72.03125 -42.28125 Z M 72.03125 -42.28125 "/></g></g><g style="fill:#373643;fill-opacity:1;"><g transform="translate(439.707803, 177.596369)"><path style="stroke:none" d="M 35.1875 -111.75 L 35.1875 0 L 9.359375 0 L 9.359375 -111.75 Z M 35.1875 -111.75 "/></g></g><g style="fill:#373643;fill-opacity:1;"><g transform="translate(478.5165, 177.596369)"><path style="stroke:none" d="M 4.234375 -42.28125 C 4.234375 -50.9375 5.867188 -58.535156 9.140625 -65.078125 C 12.410156 -71.628906 16.863281 -76.664062 22.5 -80.1875 C 28.132812 -83.707031 34.425781 -85.46875 41.375 -85.46875 C 47.3125 -85.46875 52.519531 -84.257812 57 -81.84375 C 61.488281 -79.425781 64.941406 -76.257812 67.359375 -72.34375 L 67.359375 -84.265625 L 93.171875 -84.265625 L 93.171875 0 L 67.359375 0 L 67.359375 -11.9375 C 64.835938 -8.007812 61.335938 -4.835938 56.859375 -2.421875 C 52.378906 -0.00390625 47.171875 1.203125 41.234375 1.203125 C 34.378906 1.203125 28.132812 -0.582031 22.5 -4.15625 C 16.863281 -7.726562 12.410156 -12.8125 9.140625 -19.40625 C 5.867188 -26 4.234375 -33.625 4.234375 -42.28125 Z M 67.359375 -42.140625 C 67.359375 -48.578125 65.566406 -53.65625 61.984375 -57.375 C 58.410156 -61.101562 54.054688 -62.96875 48.921875 -62.96875 C 43.796875 -62.96875 39.441406 -61.128906 35.859375 -57.453125 C 32.285156 -53.785156 30.5 -48.726562 30.5 -42.28125 C 30.5 -35.84375 32.285156 -30.734375 35.859375 -26.953125 C 39.441406 -23.179688 43.796875 -21.296875 48.921875 -21.296875 C 54.054688 -21.296875 58.410156 -23.15625 61.984375 -26.875 C 65.566406 -30.601562 67.359375 -35.691406 67.359375 -42.140625 Z M 67.359375 -42.140625 "/></g></g><g style="fill:#373643;fill-opacity:1;"><g transform="translate(575.312177, 177.596369)"><path style="stroke:none" d="M 56.328125 -21.890625 L 56.328125 0 L 43.1875 0 C 33.820312 0 26.519531 -2.289062 21.28125 -6.875 C 16.050781 -11.457031 13.4375 -18.929688 13.4375 -29.296875 L 13.4375 -62.828125 L 3.171875 -62.828125 L 3.171875 -84.265625 L 13.4375 -84.265625 L 13.4375 -104.8125 L 39.265625 -104.8125 L 39.265625 -84.265625 L 56.171875 -84.265625 L 56.171875 -62.828125 L 39.265625 -62.828125 L 39.265625 -29 C 39.265625 -26.476562 39.867188 -24.660156 41.078125 -23.546875 C 42.285156 -22.441406 44.296875 -21.890625 47.109375 -21.890625 Z M 56.328125 -21.890625 "/></g></g><g style="fill:#373643;fill-opacity:1;"><g transform="translate(630.882759, 177.596369)"><path style="stroke:none" d="M 88.796875 -43.5 C 88.796875 -41.082031 88.644531 -38.5625 88.34375 -35.9375 L 29.90625 -35.9375 C 30.300781 -30.707031 31.984375 -26.707031 34.953125 -23.9375 C 37.929688 -21.164062 41.582031 -19.78125 45.90625 -19.78125 C 52.351562 -19.78125 56.832031 -22.5 59.34375 -27.9375 L 86.828125 -27.9375 C 85.421875 -22.394531 82.878906 -17.410156 79.203125 -12.984375 C 75.535156 -8.554688 70.929688 -5.082031 65.390625 -2.5625 C 59.847656 -0.0507812 53.65625 1.203125 46.8125 1.203125 C 38.5625 1.203125 31.210938 -0.554688 24.765625 -4.078125 C 18.316406 -7.597656 13.28125 -12.628906 9.65625 -19.171875 C 6.039062 -25.722656 4.234375 -33.378906 4.234375 -42.140625 C 4.234375 -50.890625 6.019531 -58.535156 9.59375 -65.078125 C 13.164062 -71.628906 18.171875 -76.664062 24.609375 -80.1875 C 31.054688 -83.707031 38.457031 -85.46875 46.8125 -85.46875 C 54.96875 -85.46875 62.21875 -83.753906 68.5625 -80.328125 C 74.90625 -76.910156 79.863281 -72.03125 83.4375 -65.6875 C 87.007812 -59.34375 88.796875 -51.945312 88.796875 -43.5 Z M 62.375 -50.28125 C 62.375 -54.71875 60.863281 -58.242188 57.84375 -60.859375 C 54.820312 -63.472656 51.046875 -64.78125 46.515625 -64.78125 C 42.179688 -64.78125 38.53125 -63.519531 35.5625 -61 C 32.59375 -58.488281 30.753906 -54.914062 30.046875 -50.28125 Z M 62.375 -50.28125 "/></g></g><g style="fill:#3d4653;fill-opacity:1;"><g transform="translate(308.940942, 270.999969)"><path style="stroke:none" d="M 19.25 0.625 C 16.21875 0.625 13.5 0.078125 11.09375 -1.015625 C 8.6875 -2.109375 6.785156 -3.597656 5.390625 -5.484375 C 3.992188 -7.378906 3.25 -9.492188 3.15625 -11.828125 L 11.40625 -11.828125 C 11.550781 -10.191406 12.332031 -8.828125 13.75 -7.734375 C 15.175781 -6.640625 16.960938 -6.09375 19.109375 -6.09375 C 21.347656 -6.09375 23.085938 -6.523438 24.328125 -7.390625 C 25.566406 -8.253906 26.1875 -9.359375 26.1875 -10.703125 C 26.1875 -12.148438 25.492188 -13.222656 24.109375 -13.921875 C 22.734375 -14.628906 20.550781 -15.398438 17.5625 -16.234375 C 14.675781 -17.035156 12.320312 -17.804688 10.5 -18.546875 C 8.675781 -19.296875 7.097656 -20.441406 5.765625 -21.984375 C 4.441406 -23.523438 3.78125 -25.550781 3.78125 -28.0625 C 3.78125 -30.125 4.382812 -32.003906 5.59375 -33.703125 C 6.8125 -35.410156 8.550781 -36.753906 10.8125 -37.734375 C 13.070312 -38.710938 15.675781 -39.203125 18.625 -39.203125 C 23.007812 -39.203125 26.539062 -38.09375 29.21875 -35.875 C 31.90625 -33.65625 33.34375 -30.632812 33.53125 -26.8125 L 25.546875 -26.8125 C 25.410156 -28.539062 24.710938 -29.914062 23.453125 -30.9375 C 22.191406 -31.96875 20.488281 -32.484375 18.34375 -32.484375 C 16.238281 -32.484375 14.625 -32.082031 13.5 -31.28125 C 12.382812 -30.488281 11.828125 -29.441406 11.828125 -28.140625 C 11.828125 -27.109375 12.195312 -26.242188 12.9375 -25.546875 C 13.6875 -24.847656 14.597656 -24.300781 15.671875 -23.90625 C 16.753906 -23.507812 18.34375 -23.007812 20.4375 -22.40625 C 23.238281 -21.65625 25.535156 -20.894531 27.328125 -20.125 C 29.128906 -19.351562 30.679688 -18.21875 31.984375 -16.71875 C 33.296875 -15.226562 33.972656 -13.25 34.015625 -10.78125 C 34.015625 -8.582031 33.40625 -6.617188 32.1875 -4.890625 C 30.976562 -3.171875 29.265625 -1.820312 27.046875 -0.84375 C 24.835938 0.132812 22.238281 0.625 19.25 0.625 Z M 19.25 0.625 "/></g></g><g style="fill:#3d4653;fill-opacity:1;"><g transform="translate(343.658903, 270.999969)"><path style="stroke:none" d="M 40.1875 -38.5625 L 40.1875 0 L 32.203125 0 L 32.203125 -4.546875 C 30.941406 -2.960938 29.296875 -1.710938 27.265625 -0.796875 C 25.234375 0.109375 23.078125 0.5625 20.796875 0.5625 C 17.753906 0.5625 15.03125 -0.0664062 12.625 -1.328125 C 10.226562 -2.585938 8.34375 -4.453125 6.96875 -6.921875 C 5.59375 -9.398438 4.90625 -12.390625 4.90625 -15.890625 L 4.90625 -38.5625 L 12.8125 -38.5625 L 12.8125 -17.078125 C 12.8125 -13.628906 13.671875 -10.984375 15.390625 -9.140625 C 17.117188 -7.296875 19.476562 -6.375 22.46875 -6.375 C 25.457031 -6.375 27.828125 -7.296875 29.578125 -9.140625 C 31.328125 -10.984375 32.203125 -13.628906 32.203125 -17.078125 L 32.203125 -38.5625 Z M 40.1875 -38.5625 "/></g></g><g style="fill:#3d4653;fill-opacity:1;"><g transform="translate(386.426421, 270.999969)"><path style="stroke:none" d="M 9.3125 -43.6875 C 7.863281 -43.6875 6.648438 -44.175781 5.671875 -45.15625 C 4.691406 -46.132812 4.203125 -47.347656 4.203125 -48.796875 C 4.203125 -50.234375 4.691406 -51.441406 5.671875 -52.421875 C 6.648438 -53.410156 7.863281 -53.90625 9.3125 -53.90625 C 10.707031 -53.90625 11.894531 -53.410156 12.875 -52.421875 C 13.851562 -51.441406 14.34375 -50.234375 14.34375 -48.796875 C 14.34375 -47.347656 13.851562 -46.132812 12.875 -45.15625 C 11.894531 -44.175781 10.707031 -43.6875 9.3125 -43.6875 Z M 13.234375 -38.5625 L 13.234375 0 L 5.25 0 L 5.25 -38.5625 Z M 13.234375 -38.5625 "/></g></g><g style="fill:#3d4653;fill-opacity:1;"><g transform="translate(402.245416, 270.999969)"><path style="stroke:none" d="M 14.5625 -32.0625 L 14.5625 -10.703125 C 14.5625 -9.265625 14.898438 -8.226562 15.578125 -7.59375 C 16.253906 -6.96875 17.410156 -6.65625 19.046875 -6.65625 L 23.9375 -6.65625 L 23.9375 0 L 17.640625 0 C 14.046875 0 11.289062 -0.835938 9.375 -2.515625 C 7.46875 -4.203125 6.515625 -6.929688 6.515625 -10.703125 L 6.515625 -32.0625 L 1.953125 -32.0625 L 1.953125 -38.5625 L 6.515625 -38.5625 L 6.515625 -48.15625 L 14.5625 -48.15625 L 14.5625 -38.5625 L 23.9375 -38.5625 L 23.9375 -32.0625 Z M 14.5625 -32.0625 "/></g></g><g style="fill:#3d4653;fill-opacity:1;"><g transform="translate(425.624, 270.999969)"><path style="stroke:none" d="M 40.59375 -20.234375 C 40.59375 -18.785156 40.5 -17.476562 40.3125 -16.3125 L 10.84375 -16.3125 C 11.082031 -13.226562 12.226562 -10.753906 14.28125 -8.890625 C 16.332031 -7.023438 18.851562 -6.09375 21.84375 -6.09375 C 26.132812 -6.09375 29.164062 -7.890625 30.9375 -11.484375 L 39.546875 -11.484375 C 38.378906 -7.929688 36.265625 -5.023438 33.203125 -2.765625 C 30.148438 -0.503906 26.363281 0.625 21.84375 0.625 C 18.15625 0.625 14.851562 -0.203125 11.9375 -1.859375 C 9.019531 -3.515625 6.734375 -5.847656 5.078125 -8.859375 C 3.421875 -11.867188 2.59375 -15.351562 2.59375 -19.3125 C 2.59375 -23.28125 3.394531 -26.769531 5 -29.78125 C 6.613281 -32.789062 8.878906 -35.113281 11.796875 -36.75 C 14.710938 -38.382812 18.0625 -39.203125 21.84375 -39.203125 C 25.476562 -39.203125 28.71875 -38.40625 31.5625 -36.8125 C 34.414062 -35.226562 36.632812 -33 38.21875 -30.125 C 39.800781 -27.257812 40.59375 -23.960938 40.59375 -20.234375 Z M 32.265625 -22.75 C 32.222656 -25.6875 31.175781 -28.039062 29.125 -29.8125 C 27.070312 -31.59375 24.523438 -32.484375 21.484375 -32.484375 C 18.734375 -32.484375 16.378906 -31.609375 14.421875 -29.859375 C 12.460938 -28.109375 11.296875 -25.738281 10.921875 -22.75 Z M 32.265625 -22.75 "/></g></g></g></svg>